<svg width="24" height="24" viewBox="0 0 24 24" fill="none" xmlns="http://www.w3.org/2000/svg">
<path d="M23 12C23 13.4445 22.7155 14.8749 22.1627 16.2095C21.6099 17.5441 20.7996 18.7567 19.7782 19.7782C18.7567 20.7996 17.5441 21.6099 16.2095 22.1627C14.8749 22.7155 13.4445 23 12 23C10.5555 23 9.12506 22.7155 7.79048 22.1627C6.4559 21.6099 5.24327 20.7996 4.22182 19.7782C3.20038 18.7567 2.39013 17.5441 1.83732 16.2095C1.28452 14.8749 1 13.4445 1 12C1 10.5555 1.28452 9.12506 1.83733 7.79048C2.39013 6.4559 3.20038 5.24327 4.22183 4.22182C5.24327 3.20038 6.4559 2.39013 7.79048 1.83732C9.12507 1.28452 10.5555 1 12 1C13.4445 1 14.8749 1.28452 16.2095 1.83733C17.5441 2.39013 18.7567 3.20038 19.7782 4.22183C20.7996 5.24327 21.6099 6.4559 22.1627 7.79048C22.7155 9.12507 23 10.5555 23 12L23 12Z" stroke="#C7CAD1" stroke-width="1.5" stroke-dasharray="2 2"/>
<path d="M19.7782 19.7782C18.499 21.0573 16.9242 22.0012 15.1931 22.5263C13.4621 23.0515 11.6282 23.1415 9.85401 22.7886C8.0798 22.4357 6.42002 21.6507 5.02167 20.5031C3.62333 19.3555 2.52958 17.8808 1.83733 16.2095C1.14507 14.5383 0.875659 12.7221 1.05297 10.9218C1.23028 9.12156 1.84883 7.39282 2.85383 5.88873C3.85884 4.38463 5.21928 3.1516 6.81464 2.29887C8.41 1.44613 10.191 1 12 1" stroke="#C7CAD1" stroke-width="1.5"/>
<path d="M12 5.23071V11.9999L16.2308 16.2307" stroke="#C7CAD1" stroke-width="1.5" stroke-linecap="round"/>
</svg>
